<svg width="375" height="125" viewBox="0 0 375 125" fill="none" xmlns="http://www.w3.org/2000/svg">
<g clip-path="url(#clip0_6931_2893)">
<path d="M0 0H375V109C375 117.837 367.837 125 359 125H16C7.16345 125 0 117.837 0 109V0Z" fill="url(#paint0_linear_6931_2893)"/>
<path fill-rule="evenodd" clip-rule="evenodd" d="M0 68.6455L15.625 74.3417C31.25 80.038 62.5 91.4304 93.75 94.2785C125 97.1266 156.25 91.4304 187.5 77.1898C218.75 62.9493 250 40.1645 281.25 37.3164C312.5 34.4683 343.75 51.5569 359.375 60.1012L375 68.6455V137H359.375C343.75 137 312.5 137 281.25 137C250 137 218.75 137 187.5 137C156.25 137 125 137 93.75 137C62.5 137 31.25 137 15.625 137H0V68.6455Z" fill="#0096F5"/>
<path fill-rule="evenodd" clip-rule="evenodd" d="M0 55.2222L20.9375 51.8148C41.5625 48.4074 83.4375 41.5926 125 51.8148C166.562 62.037 208.438 89.2963 250 91C291.562 92.7037 333.438 68.8519 354.062 56.9259L375 45V137H354.062C333.438 137 291.562 137 250 137C208.438 137 166.562 137 125 137C83.4375 137 41.5625 137 20.9375 137H0V55.2222Z" fill="#008DE7"/>
<path fill-rule="evenodd" clip-rule="evenodd" d="M0 91.5679L15.625 82.1028C31.25 72.6378 62.5 53.7077 93.75 57.4938C125 61.2798 156.25 87.7818 187.5 93.4609C218.75 99.1399 250 83.9958 281.25 74.5308C312.5 65.0658 343.75 61.2798 359.375 59.3868L375 57.4938V137H359.375C343.75 137 312.5 137 281.25 137C250 137 218.75 137 187.5 137C156.25 137 125 137 93.75 137C62.5 137 31.25 137 15.625 137H0V91.5679Z" fill="#0085D7"/>
<path fill-rule="evenodd" clip-rule="evenodd" d="M0 91.2188L9.0625 95.5789C17.8125 99.939 35.625 108.659 53.4375 109.749C71.5625 110.839 89.375 104.299 107.188 98.849C125 93.3988 142.812 89.0387 160.625 93.3988C178.438 97.759 196.562 110.839 214.375 110.839C232.188 110.839 250 97.759 267.812 91.2188C285.625 84.6786 303.438 84.6786 321.562 89.0387C339.375 93.3988 357.188 102.119 365.938 106.479L375 110.839V137H365.938C357.188 137 339.375 137 321.562 137C303.438 137 285.625 137 267.812 137C250 137 232.188 137 214.375 137C196.562 137 178.438 137 160.625 137C142.812 137 125 137 107.188 137C89.375 137 71.5625 137 53.4375 137C35.625 137 17.8125 137 9.0625 137H0V91.2188Z" fill="#0A7EC6"/>
</g>
<defs>
<linearGradient id="paint0_linear_6931_2893" x1="0" y1="0" x2="75" y2="225" gradientUnits="userSpaceOnUse">
<stop stop-color="#5CBFFF"/>
<stop offset="1" stop-color="#009CFF"/>
</linearGradient>
<clipPath id="clip0_6931_2893">
<path d="M0 0H375V105C375 116.046 366.046 125 355 125H20C8.95431 125 0 116.046 0 105V0Z" fill="white"/>
</clipPath>
</defs>
</svg>
