<svg width="375" height="812" viewBox="0 0 375 812" fill="none" xmlns="http://www.w3.org/2000/svg">
<rect width="375" height="812" fill="#9AD5FC"/>
<rect width="375" height="153" fill="#0D9DF8"/>
<path fill-rule="evenodd" clip-rule="evenodd" d="M0 117.382L15.625 107.488C31.25 97.5943 62.5 77.8066 93.75 81.7642C125 85.7217 156.25 113.424 187.5 113.424C218.75 113.424 250 85.7217 281.25 81.7642C312.5 77.8066 343.75 97.5943 359.375 107.488L375 117.382V153H359.375C343.75 153 312.5 153 281.25 153C250 153 218.75 153 187.5 153C156.25 153 125 153 93.75 153C62.5 153 31.25 153 15.625 153H0V117.382Z" fill="#3DB1F9" fill-opacity="0.5"/>
<path fill-rule="evenodd" clip-rule="evenodd" d="M0 93.5361L15.625 103.447C31.25 113.357 62.5 133.179 93.75 127.232C125 121.286 156.25 89.5719 187.5 73.7148C218.75 57.8577 250 57.8577 281.25 63.8041C312.5 69.7505 343.75 81.6433 359.375 87.5897L375 93.5361V153H359.375C343.75 153 312.5 153 281.25 153C250 153 218.75 153 187.5 153C156.25 153 125 153 93.75 153C62.5 153 31.25 153 15.625 153H0V93.5361Z" fill="#9ED8FC" fill-opacity="0.5"/>
<path fill-rule="evenodd" clip-rule="evenodd" d="M0 105.635L15.625 113.529C31.25 121.423 62.5 137.212 93.75 129.317C125 121.423 156.25 89.8461 187.5 87.8726C218.75 85.899 250 113.529 281.25 111.555C312.5 109.582 343.75 78.0047 359.375 62.2162L375 46.4277V153H359.375C343.75 153 312.5 153 281.25 153C250 153 218.75 153 187.5 153C156.25 153 125 153 93.75 153C62.5 153 31.25 153 15.625 153H0V105.635Z" fill="#6EC4FB" fill-opacity="0.5"/>
<path fill-rule="evenodd" clip-rule="evenodd" d="M0 46.4277L15.625 56.2956C31.25 66.1634 62.5 85.899 93.75 97.7404C125 109.582 156.25 113.529 187.5 103.661C218.75 93.7932 250 70.1105 281.25 66.1634C312.5 62.2162 343.75 78.0047 359.375 85.899L375 93.7933V153H359.375C343.75 153 312.5 153 281.25 153C250 153 218.75 153 187.5 153C156.25 153 125 153 93.75 153C62.5 153 31.25 153 15.625 153H0V46.4277Z" fill="#CFEBFE" fill-opacity="0.5"/>
</svg>
