<svg width="40" height="40" viewBox="0 0 40 40" fill="none" xmlns="http://www.w3.org/2000/svg">
<rect width="40" height="40" rx="8" fill="#CFEBFE"/>
<g clip-path="url(#clip0_7096_1277)">
<path d="M22.2169 10.646C21.6627 9.83097 21.1736 9.08113 20.7172 8.3965C20.652 8.2987 20.5542 8.20089 20.4564 8.13569C20.0652 7.87488 19.5436 8.00528 19.2828 8.3965C18.8589 9.08113 18.3699 9.79837 17.7831 10.646C15.2076 14.4278 11.3606 20.133 11.3606 23.3932C11.3606 25.7731 12.3386 27.9248 13.9035 29.4897C15.4684 31.0219 17.6201 32 20 32C22.3799 32 24.5316 31.0219 26.0965 29.4571C27.6613 27.8922 28.6394 25.7405 28.6394 23.3606C28.6394 20.1004 24.7924 14.4278 22.2169 10.646ZM24.9228 28.2834C23.6514 29.5549 21.9235 30.3047 20 30.3047C18.0765 30.3047 16.3486 29.5223 15.0772 28.2834C13.8057 27.012 13.0559 25.2841 13.0559 23.3606C13.0559 20.6221 16.7398 15.1776 19.185 11.5588C19.4784 11.135 19.7392 10.7112 20 10.3526C20.2608 10.7112 20.5216 11.135 20.815 11.5588C23.2601 15.2102 26.9441 20.6221 26.9441 23.3606C26.9441 25.2841 26.1617 27.012 24.9228 28.2834Z" fill="#0D9DF8"/>
<path d="M25.0532 22.7738C24.5968 22.7412 24.2056 23.0998 24.173 23.5562C24.1404 24.2735 23.9121 24.9581 23.5535 25.5449C23.1949 26.1317 22.6733 26.6534 22.0539 26.9794C21.6626 27.2076 21.4996 27.7292 21.7278 28.1204C21.9887 28.5769 22.5103 28.7073 22.9015 28.4791C23.7817 27.99 24.499 27.2728 24.988 26.4578C25.5096 25.6427 25.803 24.6647 25.8356 23.654C25.8682 23.1976 25.5096 22.8064 25.0532 22.7738Z" fill="#0D9DF8"/>
</g>
<defs>
<clipPath id="clip0_7096_1277">
<rect width="24" height="24" fill="white" transform="translate(8 8)"/>
</clipPath>
</defs>
</svg>
